<?xml version="1.0" encoding="utf-8"?>
<!-- Generator: Adobe Illustrator 25.4.1, SVG Export Plug-In . SVG Version: 6.00 Build 0)  -->
<svg version="1.1" id="レイヤー_1" xmlns="http://www.w3.org/2000/svg" xmlns:xlink="http://www.w3.org/1999/xlink" x="0px"
	 y="0px" viewBox="0 0 288.2 62.1" style="enable-background:new 0 0 288.2 62.1;" xml:space="preserve">
<style type="text/css">
	.st0{fill:#D9372E;}
	.st1{fill:#070001;}
	.st2{fill:#FFFFFF;}
</style>
<g>
	<path class="st0" d="M138.6,12.7l-6.2,6.2c-0.7,0.7-2.2,0.7-3,0l-6.2-6.2c-0.7-0.7-0.7-2.2,0-3l6.2-6.2c0.7-0.7,2.2-0.7,3,0
		l6.2,6.2C139.5,10.4,139.5,11.7,138.6,12.7z"/>
	<path class="st1" d="M59.7,22h7.7v27.7h-6.7l-0.9-3.7c-0.4,0.6-0.7,1.1-1.3,1.7c-0.6,0.6-1.1,0.9-1.9,1.5c-0.7,0.4-1.5,0.7-2.2,1.1
		c-0.9,0.2-1.7,0.4-2.6,0.4c-3.2,0-5.6-0.9-7.5-2.8c-1.7-1.9-2.6-4.5-2.6-8.2V22h7.7v17.2c0,1.9,0.4,3.2,1.1,3.9
		c0.7,0.7,1.9,1.1,3.4,1.1c1.3,0,2.4-0.4,3.6-1.1c0.9-0.7,1.9-1.7,2.8-2.6L59.7,22L59.7,22z"/>
	<path class="st1" d="M71.3,35.7c0-2.1,0.4-3.9,0.9-5.8s1.5-3.4,2.6-4.7c1.1-1.3,2.6-2.4,4.5-3.2c1.9-0.7,3.9-1.1,6.4-1.1
		s4.5,0.4,6.4,1.1s3.4,1.9,4.5,3.2c1.1,1.3,2.1,2.8,2.6,4.7c0.6,1.9,0.9,3.7,0.9,5.8c0,2.1-0.4,3.9-0.9,5.8
		c-0.6,1.9-1.5,3.4-2.6,4.7c-1.1,1.3-2.6,2.4-4.5,3.2s-3.9,1.1-6.4,1.1c-2.4,0-4.5-0.4-6.4-1.1c-1.9-0.7-3.4-1.9-4.5-3.2
		c-1.1-1.3-2.1-2.8-2.6-4.7S71.3,37.7,71.3,35.7z M78.9,35.7c0,2.8,0.6,5,1.7,6.5c1.1,1.7,2.8,2.4,5,2.4c2.2,0,4.1-0.7,5-2.4
		c1.1-1.7,1.7-3.7,1.7-6.5c0-2.8-0.6-5-1.7-6.5c-1.1-1.7-2.8-2.4-5-2.4c-2.2,0-4.1,0.7-5,2.4C79.5,30.6,78.9,32.8,78.9,35.7z"/>
	<path class="st1" d="M111.7,26.1c0.4-0.6,0.7-1.3,1.1-1.9c0.4-0.6,0.9-1.1,1.5-1.5c0.6-0.4,1.1-0.7,1.9-1.1
		c0.7-0.2,1.5-0.4,2.4-0.4c0.9,0,1.7,0.2,2.4,0.4c0.7,0.2,1.3,0.7,1.9,1.1l-1.7,6.9c-1.1-0.7-2.4-1.3-3.9-1.3
		c-1.1,0-2.1,0.2-3.2,0.7c-0.9,0.6-1.9,1.3-2.4,2.4v18.1H104V22h6.7L111.7,26.1z"/>
	<path class="st2" d="M130.9,8.9c0.7,0,1.3,0.2,1.7,0.6c0.4,0.4,0.6,0.9,0.6,1.5c0,0.6-0.2,1.1-0.6,1.5s-0.9,0.7-1.7,0.7
		s-1.3-0.2-1.7-0.6s-0.6-0.9-0.6-1.5s0.2-1.1,0.6-1.5C129.6,9.1,130.2,8.9,130.9,8.9z"/>
	<rect x="127.2" y="22" class="st1" width="7.7" height="27.7"/>
	<path class="st1" d="M13.1,35.5L13.1,35.5L13.1,35.5z"/>
	<path class="st1" d="M14.8,35.8c-0.6-0.2-1.1-0.2-1.7-0.4C13.7,35.5,14.2,35.7,14.8,35.8z"/>
	<path class="st1" d="M24.5,41.6C24.5,41.5,24.5,41.5,24.5,41.6c2.2-0.6,4.1-1.5,5.8-2.8c1.7-1.3,3.2-2.8,4.3-4.5
		c1.1-1.7,2.1-3.7,2.6-6c0.6-2.2,0.9-4.5,0.9-7.1c0-3-0.4-5.6-1.1-8.2s-2.2-4.7-3.9-6.5c-1.7-1.9-3.6-3.4-5.8-4.3s-5-1.5-8.2-1.5
		s-5.8,0.4-8,1.5c-2.4,0.9-4.3,2.4-6,4.3s-2.6,4.1-3.6,6.7c-0.7,2.4-1.1,5.2-1.1,8c0,0.2,0,0.2,0,0.4c0,2.6,0.4,5.2,1.1,7.5
		c0.7,2.4,1.7,4.5,3.2,6.4C6,37.3,7.9,38.8,9.9,40c1.1,0.6,2.2,1.1,3.4,1.3l0,0c0.6,0.2,1.1,0.2,1.7,0.4c1.5,0.2,3,0.4,4.7,0.4
		C21.1,42.2,22.8,42,24.5,41.6z M10.9,32.1C9,29.5,8.1,25.9,8.1,21.4s0.9-8,2.8-10.7S15.5,7,19.1,7s6.4,1.3,8.2,3.7
		c1.9,2.4,2.8,6.2,2.8,10.7s-0.9,8-2.8,10.7c-1.9,2.6-4.7,3.7-8.2,3.7S12.7,34.5,10.9,32.1z"/>
	<rect x="8.2" y="45.2" class="st1" width="21.9" height="5.8"/>
	<path class="st0" d="M20.6,30.8c0-1.1,0.7-1.9,0.9-2.1c0.6-0.6,1.1-1.5,1.1-2.4c0-1.9-1.5-3.4-3.4-3.4c-1.9,0-3.4,1.5-3.4,3.4
		c0,0.9,0.4,1.9,1.1,2.4c0.2,0.2,0.9,0.9,0.9,2.1c0,1.9-3,1.5-3,14.4h4.3h4.3C23.6,32.3,20.6,32.5,20.6,30.8z"/>
	<path class="st1" d="M141.4,21.7h6.9l0.8,3.7c0.4-0.5,0.9-1,1.5-1.5c0.6-0.5,1.3-1,2.1-1.4c0.8-0.4,1.6-0.8,2.6-1
		c0.9-0.3,1.9-0.4,3-0.4c1.9,0,3.6,0.4,5,1.2c1.4,0.8,2.6,1.8,3.6,3.2c0.9,1.3,1.7,2.8,2.1,4.6c0.5,1.7,0.7,3.5,0.7,5.4
		c0,2.4-0.3,4.6-1,6.5c-0.6,1.9-1.5,3.5-2.6,4.7c-1.1,1.3-2.4,2.3-3.8,2.9s-3,1-4.6,1c-2.3,0-4-0.4-5.4-1.3c-1.3-0.9-2.4-1.9-3.2-3
		v14.7h-7.7V21.7z M149.1,36.6c0,2.4,0.6,4.4,1.8,5.8c1.2,1.4,2.7,2.1,4.5,2.1c0.9,0,1.7-0.2,2.5-0.5c0.8-0.3,1.5-0.9,2.1-1.6
		s1.1-1.7,1.4-2.8c0.3-1.2,0.5-2.6,0.5-4.3c0-2.6-0.6-4.7-1.7-6.2c-1.1-1.5-2.6-2.2-4.4-2.2c-1.5,0-2.8,0.4-3.9,1.1
		c-1.1,0.7-2.1,1.6-2.9,2.6V36.6z"/>
	<path class="st1" d="M172,41.9c0-1.8,0.3-3.3,0.9-4.5c0.6-1.2,1.5-2.2,2.7-3c1.1-0.8,2.5-1.3,4.2-1.7c1.7-0.3,3.5-0.5,5.6-0.5h4.1
		v-0.9c0-3-1.8-4.5-5.3-4.5c-1.7,0-3.2,0.2-4.6,0.6c-1.4,0.4-2.7,1-4,1.7l-1.7-5.1c1.2-0.8,2.9-1.5,4.8-2.1c2-0.6,4.1-0.8,6.3-0.8
		c4.1,0,7.1,0.9,9,2.8c1.9,1.9,2.9,4.4,2.9,7.8v18.2h-6.7l-0.8-3.7c-0.4,0.5-0.8,1.1-1.3,1.6c-0.5,0.5-1.1,1-1.8,1.4s-1.5,0.7-2.4,1
		c-0.9,0.3-1.9,0.4-3,0.4c-1.2,0-2.4-0.2-3.5-0.6c-1.1-0.4-2-1-2.9-1.7c-0.8-0.8-1.5-1.7-2-2.7C172.2,44.4,172,43.2,172,41.9z
		 M189.5,37h-4.2c-1.9,0-3.4,0.4-4.5,1.2c-1,0.8-1.6,2-1.6,3.4c0,1,0.3,1.9,1,2.5c0.6,0.6,1.5,1,2.4,1c1,0,1.9-0.2,2.8-0.6
		c0.8-0.4,1.6-0.9,2.2-1.5c0.6-0.6,1.1-1.3,1.4-2.1c0.3-0.8,0.5-1.7,0.5-2.6V37z"/>
	<path class="st1" d="M221.3,45.4c-0.8,1.1-1.9,2.1-3.2,3c-1.3,0.9-3,1.3-5,1.3c-1.7,0-3.4-0.3-4.9-1s-2.8-1.6-4-2.8
		c-1.1-1.2-2-2.7-2.7-4.5c-0.6-1.8-1-3.8-1-6.1c0-1.9,0.3-3.7,0.8-5.4s1.3-3.2,2.3-4.6c1-1.3,2.3-2.4,3.8-3.1
		c1.5-0.8,3.3-1.2,5.2-1.2c2.2,0,3.9,0.5,5.3,1.4c1.3,0.9,2.4,1.9,3.2,3l0.8-3.7h6.9v25.8c0,2.5-0.4,4.7-1.1,6.4
		c-0.8,1.8-1.8,3.2-3.1,4.4c-1.3,1.1-2.9,1.9-4.7,2.5s-3.7,0.8-5.8,0.8c-2.3,0-4.5-0.3-6.5-0.8c-2-0.5-3.7-1.2-5-2.1l1.9-5.7
		c1.4,0.9,2.9,1.5,4.4,1.9s3.1,0.6,4.5,0.6c1.1,0,2.2-0.1,3.1-0.4s1.8-0.7,2.4-1.3c0.7-0.6,1.2-1.4,1.6-2.3c0.4-0.9,0.6-2.1,0.6-3.5
		V45.4z M221.2,30.7c-0.7-1-1.6-1.9-2.6-2.6c-1-0.7-2.2-1.1-3.7-1.1c-1.8,0-3.4,0.7-4.7,2.1c-1.3,1.4-1.9,3.5-1.9,6.2
		c0,1.6,0.2,2.9,0.5,4c0.3,1.1,0.8,2,1.4,2.6c0.6,0.7,1.3,1.1,2.1,1.5c0.8,0.3,1.7,0.5,2.5,0.5c1.9,0,3.4-0.7,4.5-2
		c1.2-1.3,1.8-3.2,1.8-5.6V30.7z"/>
	<path class="st1" d="M232.9,35.7c0-2,0.3-3.9,0.9-5.7c0.6-1.8,1.5-3.4,2.7-4.7c1.2-1.3,2.7-2.4,4.6-3.1c1.8-0.8,4-1.2,6.4-1.2
		c2.5,0,4.6,0.4,6.4,1.2c1.8,0.8,3.4,1.8,4.6,3.1c1.2,1.3,2.1,2.9,2.7,4.7c0.6,1.8,0.9,3.7,0.9,5.7c0,2.1-0.3,4-0.9,5.7
		c-0.6,1.8-1.5,3.3-2.7,4.7c-1.2,1.3-2.7,2.4-4.6,3.2c-1.8,0.8-4,1.2-6.4,1.2c-2.5,0-4.6-0.4-6.4-1.2c-1.8-0.8-3.4-1.8-4.6-3.2
		c-1.2-1.3-2.1-2.9-2.7-4.7C233.2,39.7,232.9,37.8,232.9,35.7z M240.7,35.7c0,2.8,0.6,5,1.7,6.6c1.1,1.6,2.9,2.4,5.2,2.4
		c2.3,0,4.1-0.8,5.2-2.4c1.1-1.6,1.7-3.8,1.7-6.6c0-2.8-0.6-5-1.7-6.6c-1.1-1.6-2.9-2.4-5.2-2.4c-2.3,0-4.1,0.8-5.2,2.4
		C241.2,30.7,240.7,32.9,240.7,35.7z"/>
	<path class="st1" d="M275.6,44.7c1.7,0,2.9-0.2,3.7-0.7c0.7-0.5,1.1-1.2,1.1-2c0-1.1-0.5-2-1.6-2.6c-1.1-0.6-2.5-1.1-4.2-1.6
		c-1.2-0.3-2.4-0.7-3.5-1.2c-1.1-0.4-2-1-2.8-1.7c-0.8-0.7-1.4-1.5-1.9-2.4c-0.5-0.9-0.7-2-0.7-3.4c0-2.5,1-4.5,3.1-5.9
		c2.1-1.5,4.9-2.2,8.4-2.2c1.7,0,3.4,0.1,5.1,0.4c1.7,0.3,3.4,0.8,4.9,1.6l-1.8,5.5c-1.2-0.6-2.4-1-3.8-1.3
		c-1.4-0.3-2.7-0.4-4.1-0.4c-1.5,0-2.6,0.2-3.3,0.6c-0.7,0.4-1,1-1,1.8c0,0.9,0.4,1.5,1.2,2c0.8,0.5,1.8,0.9,3.1,1.3
		c1.7,0.5,3.2,1.1,4.5,1.7s2.4,1.2,3.3,2c0.9,0.8,1.6,1.6,2,2.6c0.5,1,0.7,2.2,0.7,3.5c0,2.4-1,4.3-3.1,5.9c-2.1,1.6-5,2.4-9,2.4
		c-1.9,0-3.8-0.2-5.7-0.6c-1.9-0.4-3.5-0.9-4.9-1.6l1.8-5.6c1.1,0.5,2.4,1,4,1.4C272.5,44.5,274,44.7,275.6,44.7z"/>
</g>
</svg>
